<svg width="1280" height="366" viewBox="0 0 1280 366" fill="none" xmlns="http://www.w3.org/2000/svg">
<path d="M4.43979 114.4L48.4441 113.918C121.512 109.052 267.69 99.4831 418.571 109.823C569.634 120.23 725.261 150.643 872.844 147.297C1020.29 144.049 1159.51 106.973 1229.14 88.5185L1278.92 83.7161L1278.92 252.084C859.893 263.049 518.257 212.536 94.5 251.216C83.0681 252.259 15.8717 250.173 4.43979 251.216L4.43979 114.4Z" fill="#FEFEFE"/>
<path d="M0 122.716L70.4708 133.975C140.942 145.328 281.883 167.845 422.508 168.322C563.29 168.799 703.6 147.237 844.382 152.484C985.008 157.732 1125.95 189.79 1196.42 205.914L1266.89 221.944V261.061C855.687 261.061 444.483 261.061 33.2797 261.061C22.1864 261.061 11.0932 261.061 0 261.061L0 122.716Z" fill="#F7F7F7"/>
<path d="M4.52295 209.407C145.94 208.453 287.37 207.503 428.622 202.918C569.933 198.243 710.771 190.038 852.083 186.794C993.441 183.64 1134.83 185.555 1276.18 187.462V250.432C863.431 250.432 450.679 250.432 37.9279 250.432C26.7929 250.432 15.6579 250.432 4.52295 250.432L4.52295 209.407Z" fill="white" fill-opacity="0.59"/>
</svg>
